<svg xmlns="http://www.w3.org/2000/svg" version="1.1" xmlns:xlink="http://www.w3.org/1999/xlink" width="512" height="512" x="0" y="0" viewBox="0 0 512 512" style="enable-background:new 0 0 512 512" xml:space="preserve" class=""><g><path d="M448.82 24.9C429.03 5.11 388.27 9.15 334.07 36.26 280.99 62.82 220.8 108.4 164.58 164.62S62.78 281.03 36.22 334.11c-27.11 54.2-31.15 94.96-11.36 114.75L63.1 487.1c8.31 8.31 20.18 12.46 35.21 12.46 16.19 0 36.06-4.81 59.11-14.43 41.86-17.46 91.85-50.21 140.88-92.27h4.57c1.93 0 3.5-1.57 3.5-3.5s-1.57-3.5-3.5-3.5h-38.24l26.77-26.77h62.69l26.77 26.77h-17.12c-1.93 0-3.5 1.57-3.5 3.5s1.57 3.5 3.5 3.5h20.53c4.55 0 8.25-3.7 8.25-8.25v-27.88c0-1.93-1.57-3.5-3.5-3.5s-3.5 1.57-3.5 3.5v23.89l-26.48-26.49v-62.69l26.48-26.48v46.14c0 1.93 1.57 3.5 3.5 3.5s3.5-1.57 3.5-3.5v-12.43c42.15-49.08 74.99-99.15 92.5-141.08 18.6-44.52 19.3-77.18 2.02-94.46zM287.49 392.86c-97.63 82.07-189.15 119.57-219.43 89.29l-22.32-22.32c4.4.98 9.18 1.48 14.34 1.48 15.94 0 35.45-4.66 58.04-13.98 39.95-16.47 87.52-47.06 134.57-86.46v23.74c0 4.55 3.7 8.25 8.25 8.25zm-1.03-38.72-26.77 26.77V264.67l26.77 26.77zm65.59-2.05h-58.59V293.5h58.59zm2.05-65.59h-62.69l-26.48-26.48h12.79c1.93 0 3.5-1.57 3.5-3.5s-1.57-3.5-3.5-3.5h-16.78c-4.55 0-8.25 3.7-8.25 8.25v90.45c-98.75 83.94-192.34 122.71-222.86 92.2l-.01-.01C12.59 426.67 17.21 387.8 42.5 337.25c26.23-52.42 71.34-111.97 127.05-167.67 55.7-55.7 115.25-100.82 167.67-127.05 50.55-25.29 89.43-29.91 106.67-12.67 30.56 30.56-8.31 124.28-92.44 223.16h-9.77c-1.93 0-3.5 1.57-3.5 3.5s1.57 3.5 3.5 3.5h38.93zm38.43 1.37v-26.61c0-4.55-3.7-8.25-8.25-8.25h-23.69c39.48-47.1 70.14-94.73 86.65-134.74 12.37-29.95 16.55-54.48 12.55-72.49l22.31 22.31c30.34 30.34-7.28 122-89.57 219.78z" fill="#ffffff" opacity="1" data-original="#000000"></path><path d="M437.06 53.13a3.5 3.5 0 0 0-4.03-2.88c-28.97 4.83-65.75 21.21-106.36 47.37-41.49 26.72-85 62.43-125.82 103.25-40.83 40.83-76.53 84.34-103.25 125.82-26.16 40.62-42.54 77.4-47.37 106.36a3.5 3.5 0 0 0 2.88 4.03c.19.03.39.05.58.05 1.68 0 3.16-1.21 3.45-2.92 9.69-58.12 68.05-147.77 148.67-228.39S376.08 66.84 434.2 57.15c1.89-.31 3.18-2.11 2.86-4.02zM406.78 208.11c-5.96 5.96-5.96 15.65 0 21.61 2.98 2.98 6.89 4.47 10.8 4.47s7.83-1.49 10.8-4.47c2.89-2.89 4.48-6.72 4.48-10.8s-1.59-7.92-4.48-10.8c-5.95-5.97-15.65-5.97-21.6-.01zm17.61 15.5c-.56-2.43-2-5.04-4.24-7.27-2.23-2.23-4.84-3.68-7.27-4.24 3.22-2.22 7.68-1.91 10.55.96a8.222 8.222 0 0 1 2.42 5.85c.01 1.71-.51 3.33-1.46 4.7zM436.46 160.02c-5.96 5.96-5.96 15.65 0 21.61 2.89 2.89 6.72 4.48 10.8 4.48s7.92-1.59 10.8-4.48c5.96-5.96 5.96-15.65 0-21.61-5.95-5.96-15.64-5.95-21.6 0zm16.66 16.66c-.27.27-.56.51-.86.74-.73-2.27-2.3-4.78-4.55-7.03s-4.77-3.82-7.03-4.55c.23-.3.46-.59.73-.86 1.61-1.61 3.73-2.42 5.85-2.42s4.24.81 5.85 2.42c3.23 3.22 3.23 8.47.01 11.7zM229.68 406.81c-5.96-5.96-15.65-5.96-21.61 0s-5.96 15.65 0 21.61c2.98 2.98 6.89 4.47 10.8 4.47s7.83-1.49 10.8-4.47c5.96-5.96 5.96-15.65.01-21.61zm-4.95 16.66c-.1.1-.21.19-.32.29-.67-2.33-2.22-4.91-4.49-7.18-2.27-2.28-4.85-3.82-7.18-4.49.1-.11.19-.22.29-.32 1.61-1.61 3.73-2.42 5.85-2.42s4.24.81 5.85 2.42c3.23 3.22 3.23 8.47 0 11.7zM181.59 436.5c-5.96-5.96-15.65-5.96-21.61 0s-5.96 15.65 0 21.61c2.98 2.98 6.89 4.47 10.8 4.47s7.83-1.49 10.8-4.47c2.89-2.89 4.48-6.72 4.48-10.8.01-4.09-1.58-7.93-4.47-10.81zm-3.75 15.13c-.55-2.43-1.97-5.01-4.17-7.21s-4.78-3.62-7.21-4.17a8.282 8.282 0 0 1 4.33-1.23c2.12 0 4.24.81 5.85 2.42a8.222 8.222 0 0 1 2.42 5.85c.01 1.56-.43 3.05-1.22 4.34zM333.03 225.59c1.65-2.69-1.44-5.78-4.13-4.13l-4.45 2.73a26.87 26.87 0 0 1-28.08 0l-4.45-2.73c-2.69-1.65-5.78 1.44-4.13 4.13l2.73 4.45a26.87 26.87 0 0 1 0 28.08l-2.73 4.45c-1.65 2.69 1.44 5.78 4.13 4.13l4.45-2.73a26.87 26.87 0 0 1 28.08 0l4.45 2.73c2.69 1.65 5.78-1.44 4.13-4.13l-2.73-4.45a26.87 26.87 0 0 1 0-28.08zM307.32 417.35c-1.83 2.98 1.59 6.4 4.58 4.58l4.93-3.02a29.767 29.767 0 0 1 31.11 0l4.93 3.02c2.98 1.83 6.4-1.59 4.58-4.58l-3.02-4.93a29.767 29.767 0 0 1 0-31.11l3.02-4.93c1.83-2.98-1.59-6.4-4.58-4.58l-4.93 3.02a29.767 29.767 0 0 1-31.11 0l-4.93-3.02c-2.98-1.83-6.4 1.59-4.58 4.58l3.02 4.93a29.767 29.767 0 0 1 0 31.11zM376.12 345.46c-1.13 1.85.99 3.97 2.83 2.83l3.05-1.87a18.454 18.454 0 0 1 19.27 0l3.05 1.87c1.85 1.13 3.97-.99 2.83-2.83l-1.87-3.05a18.454 18.454 0 0 1 0-19.27l1.87-3.05c1.13-1.85-.99-3.97-2.83-2.83l-3.05 1.87a18.454 18.454 0 0 1-19.27 0l-3.05-1.87c-1.85-1.13-3.97.99-2.83 2.83l1.87 3.05a18.454 18.454 0 0 1 0 19.27z" fill="#ffffff" opacity="1" data-original="#000000"></path></g></svg>