<svg xmlns="http://www.w3.org/2000/svg" version="1.1" xmlns:xlink="http://www.w3.org/1999/xlink" width="512" height="512" x="0" y="0" viewBox="0 0 70 70" style="enable-background:new 0 0 512 512" xml:space="preserve" class=""><g><path d="m32.115 51.816-11.36-23.77c-.02-.04-.06-.08-.08-.12a4.696 4.696 0 0 0 2.84-4.31c0-1.73-.95-3.23-2.34-4.04.88-.71 1.46-1.78 1.46-2.99 0-1.85-1.32-3.4-3.08-3.75v-1.82c0-.29.25-.48.49-.56 1.95-.67 3-2.69 2.44-4.7-.709-2.612-3.931-3.595-6.04-1.94-.93.73-1.46 1.83-1.46 3.01 0 .42.33.75.75.75.41 0 .75-.33.75-.75 0-.72.32-1.38.89-1.83 1.282-1.012 3.24-.395 3.67 1.16.39 1.41-.48 2.53-1.49 2.88-.91.31-1.5 1.09-1.5 1.98v1.82a3.83 3.83 0 0 0-3.07 3.75c0 1.21.58 2.28 1.46 2.99a4.678 4.678 0 0 0-2.34 4.04c0 1.93 1.17 3.59 2.84 4.31-.03.04-.06.08-.08.12l-11.36 23.76c-.65 1.36-.37 2.99.69 4.06l10.09 10.09c1.437 1.416 3.701 1.359 5.04 0l10.09-10.08a3.57 3.57 0 0 0 .7-4.06zm-13.31-37.56c1.29 0 2.33 1.05 2.33 2.33s-1.04 2.33-2.33 2.33a2.33 2.33 0 0 1 0-4.66zm-3.2 9.36a3.205 3.205 0 0 1 6.41 0 3.205 3.205 0 0 1-6.41 0zm14.75 31.2-10.09 10.08c-.8.8-2.11.8-2.92 0l-10.09-10.09c-.61-.62-.78-1.56-.4-2.35l11.36-23.76c.17-.35.5-.38.59-.38.1 0 .43.03.6.38l11.36 23.77c.37.78.21 1.73-.41 2.35z" fill="#ffffff" opacity="1" data-original="#000000" class=""></path><path d="M19.485 35.177a.75.75 0 0 0-1.353 0L9.739 52.73a.75.75 0 0 0 .147.854l8.393 8.395a.748.748 0 0 0 1.06 0l8.393-8.388a.75.75 0 0 0 .147-.853zm-.675 25.21-7.489-7.49L18.81 37.24l7.487 15.665zM64.495 51.816l-11.36-23.77c-.02-.04-.06-.08-.08-.12a4.696 4.696 0 0 0 2.84-4.31c0-1.73-.95-3.23-2.35-4.04.89-.71 1.47-1.78 1.47-2.99 0-1.85-1.33-3.4-3.08-3.75v-1.82c0-.29.25-.48.49-.56 1.95-.67 3-2.69 2.44-4.7-.736-2.638-3.948-3.581-6.04-1.94-.93.73-1.47 1.83-1.47 3.01 0 .42.34.75.75.75.42 0 .75-.33.75-.75 0-.72.33-1.38.89-1.83 1.308-1.015 3.236-.394 3.68 1.16.38 1.41-.48 2.53-1.49 2.88-.91.31-1.5 1.09-1.5 1.98v1.82c-1.75.35-3.08 1.9-3.08 3.75 0 1.21.58 2.28 1.47 2.99a4.678 4.678 0 0 0-2.34 4.04c0 1.93 1.17 3.59 2.83 4.31-.02.04-.05.08-.07.12l-11.37 23.76c-.65 1.36-.37 2.99.7 4.06l10.09 10.09c1.442 1.422 3.708 1.351 5.04 0l10.09-10.08a3.57 3.57 0 0 0 .7-4.06zm-13.31-37.56c1.28 0 2.33 1.05 2.33 2.33s-1.05 2.33-2.33 2.33-2.33-1.05-2.33-2.33 1.05-2.33 2.33-2.33zm-3.2 9.36c0-1.77 1.43-3.2 3.2-3.2s3.21 1.43 3.21 3.2-1.44 3.2-3.21 3.2-3.2-1.43-3.2-3.2zm14.75 31.2-10.09 10.08c-.8.8-2.11.8-2.92 0l-10.09-10.09c-.62-.62-.78-1.56-.4-2.35l11.36-23.76c.16-.35.49-.38.59-.38.1 0 .43.03.59.38l11.37 23.77c.37.78.21 1.73-.41 2.35z" fill="#ffffff" opacity="1" data-original="#000000" class=""></path><path d="M51.863 35.177a.75.75 0 0 0-1.354 0L42.117 52.73a.75.75 0 0 0 .147.854l8.393 8.395a.748.748 0 0 0 1.06 0l8.393-8.388a.75.75 0 0 0 .146-.853zm-.676 25.21-7.488-7.49 7.487-15.657 7.488 15.665z" fill="#ffffff" opacity="1" data-original="#000000" class=""></path></g></svg>