<svg xmlns="http://www.w3.org/2000/svg" version="1.1" xmlns:xlink="http://www.w3.org/1999/xlink" width="512" height="512" x="0" y="0" viewBox="0 0 398.402 398.402" style="enable-background:new 0 0 512 512" xml:space="preserve" class=""><g><path d="M388.418 6.722c-1.536-4.096-3.584-6.656-6.144-6.656-3.072-.512-5.12 2.048-5.632 4.608 0 1.536-15.872 157.184-178.176 224.768C36.674 161.858 20.802 6.21 20.29 4.674c0-2.56-2.56-5.12-5.632-4.608-2.56 0-5.12 2.56-4.608 5.632 0 1.536 16.384 159.744 179.2 230.912l-45.568 27.648c-.512.512-1.024.512-1.024 1.024-.512.512-.512 1.024-.512 1.536v95.744c0 .512.512 1.024.512 1.536l.512.512.512.512.512.512.512.512 51.712 31.744h1.024c.512 0 1.024.512 1.536.512s1.024 0 1.536-.512h1.024l51.712-31.744.512-.512.512-.512.512-.512.512-.512c.512-.512.512-1.024.512-1.536v-94.72c0-.512-.512-1.024-.512-1.536-.512-.512-.512-1.024-1.024-1.024l-45.056-27.648c163.328-70.656 179.2-229.376 179.2-230.912zM192.834 245.826v18.944l-22.528 13.312-14.336-9.216 36.864-23.04zm-40.96 32.256 13.312 8.704v56.832l-13.312 8.704v-74.24zm40.96 106.496-36.864-23.04 14.336-9.216 22.528 13.312v18.944zm5.12-28.16-23.04-13.312v-56.32l23.04-13.312 23.04 13.312v56.32l-23.04 13.312zm5.12 28.16v-18.944l22.528-13.312 14.336 9.216-36.864 23.04zm41.472-32.256-13.312-8.704v-56.832l13.312-8.704v74.24zm-4.096-83.456-14.336 9.216-22.528-13.312v-18.944l36.864 23.04z" fill="#ffffff" opacity="1" data-original="#000000"></path></g></svg>