<svg xmlns="http://www.w3.org/2000/svg" version="1.1" xmlns:xlink="http://www.w3.org/1999/xlink" width="512" height="512" x="0" y="0" viewBox="0 0 64 64" style="enable-background:new 0 0 512 512" xml:space="preserve" class=""><g><path d="M53.597 27.607c-1.052-17.237-42.149-17.228-43.194 0C10.906 35.906 20.917 40.445 32 40.623c11.09-.18 21.086-4.713 21.597-13.015zM32 16.593c10.843.016 19.695 4.947 19.587 11.126-7.417-9.924-31.763-9.919-39.174 0C12.304 21.54 21.158 16.61 32 16.593zm0 22.03c-9.069 0-16.696-3.486-18.921-8.195C15.364 25.652 23.203 22.22 32 22.22s16.636 3.432 18.921 8.208c-2.225 4.71-9.852 8.194-18.921 8.194z" fill="#ffffff" opacity="1" data-original="#000000" class=""></path><path d="M32 9.726c-15.44 0-28 9.139-28 20.372 1.448 27.005 54.56 26.993 56 0C60 18.865 47.44 9.726 32 9.726zm0 38.745c-14.336 0-26-8.242-26-18.373 1.345-24.354 50.663-24.343 52 0 0 10.131-11.664 18.373-26 18.373z" fill="#ffffff" opacity="1" data-original="#000000" class=""></path></g></svg>