<svg xmlns="http://www.w3.org/2000/svg" version="1.1" xmlns:xlink="http://www.w3.org/1999/xlink" width="512" height="512" x="0" y="0" viewBox="0 0 416 416.427" style="enable-background:new 0 0 512 512" xml:space="preserve" class=""><g><path d="M143.574 416.426c-79.05 0-143.36-64.309-143.36-143.36 0-65.418 44.188-122.507 107.458-138.828a6.83 6.83 0 0 1 8.316 4.907 6.827 6.827 0 0 1-4.906 8.316c-57.238 14.762-97.215 66.41-97.215 125.605 0 71.52 58.188 129.707 129.707 129.707s129.707-58.187 129.707-129.707c0-58.683-39.547-110.218-96.172-125.332a6.827 6.827 0 0 1-4.836-8.355c.97-3.64 4.7-5.8 8.356-4.836 62.59 16.703 106.305 73.668 106.305 138.523 0 79.051-64.313 143.36-143.36 143.36zm0-40.332c-56.812 0-103.027-46.219-103.027-103.028S86.762 170.04 143.574 170.04c56.809 0 103.028 46.219 103.028 103.027s-46.22 103.028-103.028 103.028zm0-192.399c-49.281 0-89.375 40.09-89.375 89.371s40.094 89.375 89.375 89.375c49.278 0 89.371-40.093 89.371-89.375s-40.093-89.37-89.37-89.37zm0 0" fill="#ffffff" opacity="1" data-original="#000000" class=""></path><path d="M143.574 180.906a6.84 6.84 0 0 1-5.015-2.191L59.71 93.379a6.835 6.835 0 0 1-1.238-7.367 6.822 6.822 0 0 1 6.254-4.09h157.691a6.825 6.825 0 0 1 5.016 11.457l-78.848 85.332a6.821 6.821 0 0 1-5.012 2.195zM80.328 95.574l63.246 68.446 63.242-68.446zm0 0" fill="#ffffff" opacity="1" data-original="#000000" class=""></path><path d="M222.418 95.574H64.727a6.825 6.825 0 0 1-6-3.574 6.835 6.835 0 0 1 .277-6.977l26.644-40.96a6.828 6.828 0 0 1 5.727-3.102h104.398a6.825 6.825 0 0 1 5.723 3.102l26.649 40.96a6.831 6.831 0 0 1-5.727 10.55zM77.312 81.922h132.52L192.07 54.613H95.078zm0 0" fill="#ffffff" opacity="1" data-original="#000000" class=""></path><path d="M143.574 180.906a6.827 6.827 0 0 1-6.43-4.527L107.278 92.75a6.83 6.83 0 0 1 .836-6.21l29.867-42.665c1.301-1.86 3.415-2.988 5.704-2.914a6.815 6.815 0 0 1 5.601 3.09l27.88 42.668a6.823 6.823 0 0 1 .76 5.894l-27.878 83.625a6.825 6.825 0 0 1-6.402 4.668h-.07zm-22.25-89.426 22.028 61.68 20.578-61.734-20.551-31.457zM143.574 27.988a6.827 6.827 0 0 1-6.828-6.824V6.828c0-3.773 3.059-6.828 6.828-6.828s6.824 3.055 6.824 6.828v14.336a6.823 6.823 0 0 1-6.824 6.824zM205.348 28.332a6.826 6.826 0 0 1-5.848-10.34l7.168-11.945c1.937-3.238 6.133-4.281 9.367-2.34a6.82 6.82 0 0 1 2.34 9.363l-7.168 11.95a6.828 6.828 0 0 1-5.86 3.312zM236.414 66.219c-1.5 0-3.004-.489-4.262-1.496a6.823 6.823 0 0 1-1.066-9.594l9.559-11.945c2.351-2.954 6.656-3.422 9.593-1.067a6.823 6.823 0 0 1 1.067 9.594l-9.559 11.945a6.804 6.804 0 0 1-5.332 2.563zM81.8 28.332a6.815 6.815 0 0 1-5.859-3.312L68.77 13.07a6.823 6.823 0 0 1 2.34-9.363c3.234-1.937 7.43-.89 9.367 2.34l7.168 11.945a6.825 6.825 0 0 1-5.844 10.34zM50.734 66.219a6.793 6.793 0 0 1-5.332-2.563l-9.558-11.945c-2.356-2.945-1.883-7.242 1.066-9.594a6.824 6.824 0 0 1 9.594 1.067l9.559 11.945a6.82 6.82 0 0 1-1.07 9.594 6.784 6.784 0 0 1-4.259 1.496zm0 0" fill="#ffffff" opacity="1" data-original="#000000" class=""></path></g></svg>