<svg xmlns="http://www.w3.org/2000/svg" version="1.1" xmlns:xlink="http://www.w3.org/1999/xlink" width="512" height="512" x="0" y="0" viewBox="0 0 500 500" style="enable-background:new 0 0 512 512" xml:space="preserve" class=""><g><path fill-rule="evenodd" d="M416.517 74.214c5.261 9.765 13.238 17.944 22.911 23.429a59.293 59.293 0 0 0-22.9 23.435 59.447 59.447 0 0 0-22.911-23.435c9.672-5.485 17.644-13.664 22.9-23.429zm-41.618 29.585c18.293 4.067 32.518 19.225 35.392 37.736 1.092 7.069 11.364 7.081 12.464 0 2.874-18.511 17.099-33.669 35.392-37.736 6.565-1.453 6.556-10.856 0-12.322-18.293-4.051-32.518-19.22-35.392-37.731-1.099-7.063-11.37-7.069-12.464 0-2.873 18.511-17.099 33.679-35.392 37.731-6.545 1.464-6.543 10.881 0 12.322zM115.096 117.67a42.197 42.197 0 0 0 11.657 11.875 42.216 42.216 0 0 0-11.646 11.87 42.29 42.29 0 0 0-11.652-11.87 41.901 41.901 0 0 0 11.641-11.875zm-28.603 18.037c11.564 2.568 20.561 12.153 22.377 23.854 1.099 7.072 11.37 7.076 12.47 0 1.816-11.701 10.812-21.286 22.377-23.854 6.555-1.458 6.552-10.872 0-12.323-11.565-2.568-20.561-12.159-22.377-23.854-1.1-7.066-11.368-7.08-12.47 0-1.816 11.696-10.812 21.286-22.377 23.854-6.551 1.449-6.563 10.864 0 12.323zm89.954-44.405c11.295-11.294 24.017-6.67 34.596 3.909 2.446 2.445 6.156 2.476 8.92 0 5.774-5.79 11.875-9.329 17.617-10.24 6.178-.981 11.728 1.091 16.974 6.33 8.451 8.462 8.451 22.224 0 30.686l-4.291 4.28-34.759 34.77-39.056-39.05c-8.463-8.461-8.463-22.223-.001-30.685zm47.414-40.021c-7.873 7.879-10.19 19.421-6.505 29.481 14.897-11.245 32.154-12.339 46.117 1.614 13.32 13.32 13.369 34.961.164 48.352l9.149 9.138 48.919-48.919c10.908-10.897 10.904-28.767 0-39.666-14.384-14.378-30.836-8.799-44.459 4.798a6.317 6.317 0 0 1-8.926 0c-13.617-13.591-30.087-19.182-44.459-4.798zm-14.356 121.611c3.308 3.297 8.678 3.302 11.99 0l33.227-33.232 11.717 11.717a8.968 8.968 0 0 0 12.688-.011l51.498-51.493c15.835-15.834 15.843-41.68 0-57.512-17.786-17.775-39.699-14.781-57.839.665-18.141-15.436-40.056-18.454-57.845-.665-8.778 8.778-12.791 20.692-11.75 32.365-12.635-5.16-25.315-2.692-35.664 7.65-13.386 13.386-13.386 35.152 0 48.532zm18.767 234.143c-36.373-46.793-36.373-111.742 0-158.54a99.133 99.133 0 0 1 13.473 12.088c-30.141 39.743-30.141 94.627 0 134.38-4.111 4.412-8.615 8.474-13.473 12.072zM70.659 327.773c0 54.453 44.306 98.765 98.771 98.765 17.502 0 33.958-4.586 48.232-12.617-38.82-50.86-38.817-121.451 0-172.307a98.177 98.177 0 0 0-48.232-12.612c-54.464.001-98.771 44.307-98.771 98.771zm197.53 0c0-21.254-6.745-40.953-18.205-57.087-24.291 34.187-24.291 79.976 0 114.163 11.461-16.122 18.205-35.833 18.205-57.076zM169.43 216.386c-61.422 0-111.388 49.966-111.388 111.388 0 61.411 49.966 111.387 111.388 111.387 61.41 0 111.376-49.977 111.376-111.387 0-61.422-49.966-111.388-111.376-111.388zm161.151 240.801c-25.125 0-49.164-7.088-70.025-20.572a142.446 142.446 0 0 0 13.478-12.879c17.099 10.098 36.52 15.425 56.547 15.425 61.411 0 111.387-49.977 111.387-111.387 0-61.422-49.977-111.388-111.387-111.388-20.027 0-39.448 5.327-56.547 15.42a143.18 143.18 0 0 0-13.478-12.889c20.861-13.473 44.912-20.567 70.025-20.567 71.361 0 129.413 58.063 129.413 129.424.001 71.35-58.051 129.413-129.413 129.413zm-48.324-215.573c38.945 50.882 38.953 121.426 0 172.307 14.711 8.277 31.275 12.617 48.325 12.617 54.453 0 98.771-44.312 98.771-98.765 0-54.464-44.317-98.771-98.771-98.771-17.05.001-33.615 4.346-48.325 12.612zM40.006 327.773c0 71.35 58.063 129.413 129.424 129.413 71.35 0 129.408-58.063 129.408-129.413 0-71.361-58.057-129.424-129.408-129.424-71.362 0-129.424 58.063-129.424 129.424zm290.575-142.041c-29.089 0-56.874 8.67-80.636 25.103-22.9-15.818-50.647-25.103-80.516-25.103-78.324 0-142.041 63.717-142.041 142.041 0 78.308 63.717 142.03 142.041 142.03 29.868 0 57.616-9.286 80.516-25.103 23.762 16.433 51.536 25.103 80.636 25.103 78.313 0 142.03-63.723 142.03-142.03 0-78.323-63.717-142.041-142.03-142.041z" clip-rule="evenodd" fill="#ffffff" opacity="1" data-original="#000000" class=""></path></g></svg>